# MagicaVoxel @ Ephtracy

# group
o 

# material
mtllib Player.mtl
usemtl palette

# normals
vn -1 0 0
vn 1 0 0
vn 0 0 1
vn 0 0 -1
vn 0 -1 0
vn 0 1 0

# texcoords
vt 0.939453 0.5
vt 0.962891 0.5
vt 0.974609 0.5
vt 0.986328 0.5
vt 0.990234 0.5
vt 0.994141 0.5

# verts
v 0.2 5.5 -2.2
v 0.2 5.5 -2.5
v 0.2 6.5 -0.4
v 0.2 6.5 -2.2
v 0.2 7 -0.4
v 0.2 7 -2.5
v 0.4 3.1 -0.1
v 0.4 3.1 -0.2
v 0.4 5 -0.6
v 0.4 5 -2.3
v 0.4 5.4 -0.1
v 0.4 5.4 -0.2
v 0.4 5.5 -2.2
v 0.4 5.5 -2.3
v 0.4 6.5 -0.6
v 0.4 6.5 -2.2
v 0.6 2 -0.8
v 0.6 2 -2.1
v 0.6 2.9 -0.1
v 0.6 2.9 -0.2
v 0.6 3.1 -0.1
v 0.6 3.1 -0.2
v 0.6 5 -0.8
v 0.6 5 -2.1
v 0.6 5.4 -0.1
v 0.6 5.4 -0.2
v 0.6 5.6 -0.1
v 0.6 5.6 -0.2
v 0.8 4.1 -0.2
v 0.8 4.1 -0.6
v 0.8 4.1 -0.8
v 0.8 4.3 -0.5
v 0.8 4.3 -0.6
v 0.8 4.3 -0.8
v 0.8 4.4 -0.2
v 0.8 4.4 -0.5
v 0.9 3.9 -0.2
v 0.9 3.9 -0.4
v 0.9 4 -0.2
v 0.9 4 -0.3
v 0.9 4.1 -0.3
v 0.9 4.1 -0.4
v 0.9 4.4 -0.3
v 0.9 4.4 -0.4
v 0.9 4.5 -0.2
v 0.9 4.5 -0.3
v 0.9 4.6 -0.2
v 0.9 4.6 -0.4
v 1 4 0
v 1 4 -0.1
v 1 4.5 0
v 1 4.5 -0.1
v 1.4 4.1 -0.2
v 1.4 4.1 -0.4
v 1.4 4.3 -0.4
v 1.4 4.3 -0.5
v 1.4 4.4 -0.2
v 1.4 4.4 -0.5
v 1.5 3.9 -0.2
v 1.5 3.9 -0.4
v 1.5 4 -0.2
v 1.5 4 -0.3
v 1.5 4.1 -0.3
v 1.5 4.1 -0.4
v 1.5 4.1 -0.6
v 1.5 4.1 -0.8
v 1.5 4.3 -0.4
v 1.5 4.3 -0.5
v 1.5 4.3 -0.6
v 1.5 4.3 -0.8
v 1.5 4.4 -0.3
v 1.5 4.4 -0.4
v 1.5 4.5 -0.2
v 1.5 4.5 -0.3
v 1.5 4.6 -0.2
v 1.5 4.6 -0.4
v 1 3.9 -0.2
v 1 3.9 -0.4
v 1 4 -0.2
v 1 4 -0.3
v 1 4.1 -0.3
v 1 4.1 -0.4
v 1 4.1 -0.6
v 1 4.1 -0.8
v 1 4.3 -0.4
v 1 4.3 -0.5
v 1 4.3 -0.6
v 1 4.3 -0.8
v 1 4.4 -0.3
v 1 4.4 -0.4
v 1 4.5 -0.2
v 1 4.5 -0.3
v 1 4.6 -0.2
v 1 4.6 -0.4
v 1.1 4.1 -0.2
v 1.1 4.1 -0.4
v 1.1 4.3 -0.4
v 1.1 4.3 -0.5
v 1.1 4.4 -0.2
v 1.1 4.4 -0.5
v 1.5 4 0
v 1.5 4 -0.1
v 1.5 4.5 0
v 1.5 4.5 -0.1
v 1.6 3.9 -0.2
v 1.6 3.9 -0.4
v 1.6 4 -0.2
v 1.6 4 -0.3
v 1.6 4.1 -0.3
v 1.6 4.1 -0.4
v 1.6 4.4 -0.3
v 1.6 4.4 -0.4
v 1.6 4.5 -0.2
v 1.6 4.5 -0.3
v 1.6 4.6 -0.2
v 1.6 4.6 -0.4
v 1.7 4.1 -0.2
v 1.7 4.1 -0.6
v 1.7 4.1 -0.8
v 1.7 4.3 -0.5
v 1.7 4.3 -0.6
v 1.7 4.3 -0.8
v 1.7 4.4 -0.2
v 1.7 4.4 -0.5
v 1.9 2 -0.8
v 1.9 2 -2.1
v 1.9 2.9 -0.1
v 1.9 2.9 -0.2
v 1.9 3.1 -0.1
v 1.9 3.1 -0.2
v 1.9 5 -0.8
v 1.9 5 -2.1
v 1.9 5.4 -0.1
v 1.9 5.4 -0.2
v 1.9 5.6 -0.1
v 1.9 5.6 -0.2
v 2.1 3.1 -0.1
v 2.1 3.1 -0.2
v 2.1 5 -0.6
v 2.1 5 -2.3
v 2.1 5.4 -0.1
v 2.1 5.4 -0.2
v 2.1 5.5 -2.2
v 2.1 5.5 -2.3
v 2.1 6.5 -0.6
v 2.1 6.5 -2.2
v 2.3 5.5 -2.2
v 2.3 5.5 -2.5
v 2.3 6.5 -0.4
v 2.3 6.5 -2.2
v 2.3 7 -0.4
v 2.3 7 -2.5
v 1 4 0
v 1 4.5 0
v 1.5 4 0
v 1.5 4.5 0
v 0.4 3.1 -0.1
v 0.4 5.4 -0.1
v 0.5 3.2 -0.1
v 0.5 5.3 -0.1
v 0.6 2.9 -0.1
v 0.6 3.1 -0.1
v 0.6 5.4 -0.1
v 0.6 5.6 -0.1
v 0.7 3 -0.1
v 0.7 3.2 -0.1
v 0.7 5.3 -0.1
v 0.7 5.5 -0.1
v 1 4 -0.1
v 1 4.5 -0.1
v 1.5 4 -0.1
v 1.5 4.5 -0.1
v 1.8 3 -0.1
v 1.8 3.2 -0.1
v 1.8 5.3 -0.1
v 1.8 5.5 -0.1
v 1.9 2.9 -0.1
v 1.9 3.1 -0.1
v 1.9 5.4 -0.1
v 1.9 5.6 -0.1
v 2 3.2 -0.1
v 2 5.3 -0.1
v 2.1 3.1 -0.1
v 2.1 5.4 -0.1
v 0.9 4 -0.3
v 0.9 4.1 -0.3
v 0.9 4.4 -0.3
v 0.9 4.5 -0.3
v 1 4 -0.3
v 1 4.1 -0.3
v 1 4.4 -0.3
v 1 4.5 -0.3
v 1.5 4 -0.3
v 1.5 4.1 -0.3
v 1.5 4.4 -0.3
v 1.5 4.5 -0.3
v 1.6 4 -0.3
v 1.6 4.1 -0.3
v 1.6 4.4 -0.3
v 1.6 4.5 -0.3
v 0.2 6.5 -0.4
v 0.2 7 -0.4
v 2.3 6.5 -0.4
v 2.3 7 -0.4
v 0.4 5 -0.6
v 0.4 6.5 -0.6
v 0.6 5.7 -0.6
v 0.6 6.2 -0.6
v 0.8 5.9 -0.6
v 0.8 6 -0.6
v 0.9 5.9 -0.6
v 0.9 6 -0.6
v 1.1 5.7 -0.6
v 1.1 6.2 -0.6
v 1.4 5.7 -0.6
v 1.4 6.2 -0.6
v 1.6 5.9 -0.6
v 1.6 6 -0.6
v 1.7 5.9 -0.6
v 1.7 6 -0.6
v 1.9 5.7 -0.6
v 1.9 6.2 -0.6
v 2.1 5 -0.6
v 2.1 6.5 -0.6
v 0.6 2 -0.8
v 0.6 5 -0.8
v 0.8 4.1 -0.8
v 0.8 4.3 -0.8
v 1 4.1 -0.8
v 1 4.3 -0.8
v 1.5 4.1 -0.8
v 1.5 4.3 -0.8
v 1.7 4.1 -0.8
v 1.7 4.3 -0.8
v 1.9 2 -0.8
v 1.9 5 -0.8
v 0.2 5.5 -2.2
v 0.2 6.5 -2.2
v 0.4 5.5 -2.2
v 0.4 6.5 -2.2
v 2.1 5.5 -2.2
v 2.1 6.5 -2.2
v 2.3 5.5 -2.2
v 2.3 6.5 -2.2
v 0.4 3.1 -0.2
v 0.4 5.4 -0.2
v 0.5 3.2 -0.2
v 0.5 5.3 -0.2
v 0.6 2.9 -0.2
v 0.6 3.1 -0.2
v 0.6 5.4 -0.2
v 0.6 5.6 -0.2
v 0.7 3 -0.2
v 0.7 3.2 -0.2
v 0.7 5.3 -0.2
v 0.7 5.5 -0.2
v 0.8 4.1 -0.2
v 0.8 4.4 -0.2
v 0.9 3.9 -0.2
v 0.9 4 -0.2
v 0.9 4.5 -0.2
v 0.9 4.6 -0.2
v 1 3.9 -0.2
v 1 4 -0.2
v 1 4.5 -0.2
v 1 4.6 -0.2
v 1.1 4.1 -0.2
v 1.1 4.4 -0.2
v 1.4 4.1 -0.2
v 1.4 4.4 -0.2
v 1.5 3.9 -0.2
v 1.5 4 -0.2
v 1.5 4.5 -0.2
v 1.5 4.6 -0.2
v 1.6 3.9 -0.2
v 1.6 4 -0.2
v 1.6 4.5 -0.2
v 1.6 4.6 -0.2
v 1.7 4.1 -0.2
v 1.7 4.4 -0.2
v 1.8 3 -0.2
v 1.8 3.2 -0.2
v 1.8 5.3 -0.2
v 1.8 5.5 -0.2
v 1.9 2.9 -0.2
v 1.9 3.1 -0.2
v 1.9 5.4 -0.2
v 1.9 5.6 -0.2
v 2 3.2 -0.2
v 2 5.3 -0.2
v 2.1 3.1 -0.2
v 2.1 5.4 -0.2
v 0.9 3.9 -0.4
v 0.9 4.1 -0.4
v 0.9 4.4 -0.4
v 0.9 4.6 -0.4
v 1 3.9 -0.4
v 1 4.1 -0.4
v 1 4.3 -0.4
v 1 4.4 -0.4
v 1 4.6 -0.4
v 1.1 4.1 -0.4
v 1.1 4.3 -0.4
v 1.4 4.1 -0.4
v 1.4 4.3 -0.4
v 1.5 3.9 -0.4
v 1.5 4.1 -0.4
v 1.5 4.3 -0.4
v 1.5 4.4 -0.4
v 1.5 4.6 -0.4
v 1.6 3.9 -0.4
v 1.6 4.1 -0.4
v 1.6 4.4 -0.4
v 1.6 4.6 -0.4
v 0.8 4.3 -0.5
v 0.8 4.4 -0.5
v 1 4.3 -0.5
v 1.1 4.3 -0.5
v 1.1 4.4 -0.5
v 1.4 4.3 -0.5
v 1.4 4.4 -0.5
v 1.5 4.3 -0.5
v 1.7 4.3 -0.5
v 1.7 4.4 -0.5
v 0.6 2 -2.1
v 0.6 5 -2.1
v 1.9 2 -2.1
v 1.9 5 -2.1
v 0.4 5 -2.3
v 0.4 5.5 -2.3
v 2.1 5 -2.3
v 2.1 5.5 -2.3
v 0.2 5.5 -2.5
v 0.2 7 -2.5
v 2.3 5.5 -2.5
v 2.3 7 -2.5
v 0.6 2 -0.8
v 1.9 2 -0.8
v 0.6 2 -2.1
v 1.9 2 -2.1
v 0.6 2.9 -0.1
v 1.9 2.9 -0.1
v 0.6 2.9 -0.2
v 1.9 2.9 -0.2
v 0.4 3.1 -0.1
v 0.6 3.1 -0.1
v 1.9 3.1 -0.1
v 2.1 3.1 -0.1
v 0.4 3.1 -0.2
v 0.6 3.1 -0.2
v 1.9 3.1 -0.2
v 2.1 3.1 -0.2
v 0.9 3.9 -0.2
v 1 3.9 -0.2
v 1.5 3.9 -0.2
v 1.6 3.9 -0.2
v 0.9 3.9 -0.4
v 1 3.9 -0.4
v 1.5 3.9 -0.4
v 1.6 3.9 -0.4
v 1 4 0
v 1.5 4 0
v 1 4 -0.1
v 1.5 4 -0.1
v 0.8 4.1 -0.2
v 1.1 4.1 -0.2
v 1.4 4.1 -0.2
v 1.7 4.1 -0.2
v 0.9 4.1 -0.3
v 1 4.1 -0.3
v 1.5 4.1 -0.3
v 1.6 4.1 -0.3
v 0.9 4.1 -0.4
v 1 4.1 -0.4
v 1.1 4.1 -0.4
v 1.4 4.1 -0.4
v 1.5 4.1 -0.4
v 1.6 4.1 -0.4
v 0.8 4.1 -0.6
v 1 4.1 -0.6
v 1.5 4.1 -0.6
v 1.7 4.1 -0.6
v 0.8 4.1 -0.8
v 1 4.1 -0.8
v 1.5 4.1 -0.8
v 1.7 4.1 -0.8
v 1 4.3 -0.4
v 1.1 4.3 -0.4
v 1.4 4.3 -0.4
v 1.5 4.3 -0.4
v 1 4.3 -0.5
v 1.1 4.3 -0.5
v 1.4 4.3 -0.5
v 1.5 4.3 -0.5
v 0.9 4.5 -0.2
v 1 4.5 -0.2
v 1.5 4.5 -0.2
v 1.6 4.5 -0.2
v 0.9 4.5 -0.3
v 1 4.5 -0.3
v 1.5 4.5 -0.3
v 1.6 4.5 -0.3
v 0.4 5 -0.6
v 2.1 5 -0.6
v 0.6 5 -0.8
v 1.9 5 -0.8
v 0.6 5 -2.1
v 1.9 5 -2.1
v 0.4 5 -2.3
v 2.1 5 -2.3
v 0.2 5.5 -2.2
v 0.4 5.5 -2.2
v 2.1 5.5 -2.2
v 2.3 5.5 -2.2
v 0.4 5.5 -2.3
v 2.1 5.5 -2.3
v 0.2 5.5 -2.5
v 2.3 5.5 -2.5
v 0.2 6.5 -0.4
v 2.3 6.5 -0.4
v 0.4 6.5 -0.6
v 2.1 6.5 -0.6
v 0.2 6.5 -2.2
v 0.4 6.5 -2.2
v 2.1 6.5 -2.2
v 2.3 6.5 -2.2
v 0.9 4 -0.2
v 1 4 -0.2
v 1.5 4 -0.2
v 1.6 4 -0.2
v 0.9 4 -0.3
v 1 4 -0.3
v 1.5 4 -0.3
v 1.6 4 -0.3
v 0.8 4.3 -0.5
v 1 4.3 -0.5
v 1.5 4.3 -0.5
v 1.7 4.3 -0.5
v 0.8 4.3 -0.6
v 1 4.3 -0.6
v 1.5 4.3 -0.6
v 1.7 4.3 -0.6
v 0.8 4.3 -0.8
v 1 4.3 -0.8
v 1.5 4.3 -0.8
v 1.7 4.3 -0.8
v 0.8 4.4 -0.2
v 1.1 4.4 -0.2
v 1.4 4.4 -0.2
v 1.7 4.4 -0.2
v 0.9 4.4 -0.3
v 1 4.4 -0.3
v 1.5 4.4 -0.3
v 1.6 4.4 -0.3
v 0.9 4.4 -0.4
v 1 4.4 -0.4
v 1.5 4.4 -0.4
v 1.6 4.4 -0.4
v 0.8 4.4 -0.5
v 1.1 4.4 -0.5
v 1.4 4.4 -0.5
v 1.7 4.4 -0.5
v 1 4.5 0
v 1.5 4.5 0
v 1 4.5 -0.1
v 1.5 4.5 -0.1
v 0.9 4.6 -0.2
v 1 4.6 -0.2
v 1.5 4.6 -0.2
v 1.6 4.6 -0.2
v 0.9 4.6 -0.4
v 1 4.6 -0.4
v 1.5 4.6 -0.4
v 1.6 4.6 -0.4
v 0.4 5.4 -0.1
v 0.6 5.4 -0.1
v 1.9 5.4 -0.1
v 2.1 5.4 -0.1
v 0.4 5.4 -0.2
v 0.6 5.4 -0.2
v 1.9 5.4 -0.2
v 2.1 5.4 -0.2
v 0.6 5.6 -0.1
v 1.9 5.6 -0.1
v 0.6 5.6 -0.2
v 1.9 5.6 -0.2
v 0.2 7 -0.4
v 2.3 7 -0.4
v 0.2 7 -2.5
v 2.3 7 -2.5

# faces
f 4/4/1 2/4/1 1/4/1
f 5/4/1 4/4/1 3/4/1
f 6/4/1 2/4/1 4/4/1
f 6/4/1 4/4/1 5/4/1
f 11/2/1 8/2/1 7/2/1
f 12/2/1 8/2/1 11/2/1
f 13/5/1 10/5/1 9/5/1
f 14/5/1 10/5/1 13/5/1
f 15/5/1 13/5/1 9/5/1
f 16/5/1 13/5/1 15/5/1
f 21/2/1 20/2/1 19/2/1
f 22/2/1 20/2/1 21/2/1
f 23/4/1 18/4/1 17/4/1
f 24/4/1 18/4/1 23/4/1
f 27/2/1 26/2/1 25/2/1
f 28/2/1 26/2/1 27/2/1
f 32/5/1 30/5/1 29/5/1
f 33/4/1 31/4/1 30/4/1
f 33/5/1 30/5/1 32/5/1
f 34/4/1 31/4/1 33/4/1
f 35/5/1 32/5/1 29/5/1
f 36/5/1 32/5/1 35/5/1
f 39/6/1 38/6/1 37/6/1
f 40/6/1 38/6/1 39/6/1
f 41/6/1 38/6/1 40/6/1
f 42/6/1 38/6/1 41/6/1
f 46/6/1 44/6/1 43/6/1
f 47/6/1 46/6/1 45/6/1
f 48/6/1 44/6/1 46/6/1
f 48/6/1 46/6/1 47/6/1
f 51/4/1 50/4/1 49/4/1
f 52/4/1 50/4/1 51/4/1
f 55/5/1 54/5/1 53/5/1
f 57/5/1 55/5/1 53/5/1
f 57/5/1 56/5/1 55/5/1
f 58/5/1 56/5/1 57/5/1
f 61/6/1 60/6/1 59/6/1
f 62/6/1 60/6/1 61/6/1
f 63/6/1 60/6/1 62/6/1
f 64/6/1 60/6/1 63/6/1
f 67/5/1 65/5/1 64/5/1
f 68/5/1 65/5/1 67/5/1
f 69/4/1 66/4/1 65/4/1
f 69/5/1 65/5/1 68/5/1
f 70/4/1 66/4/1 69/4/1
f 74/6/1 72/6/1 71/6/1
f 75/6/1 74/6/1 73/6/1
f 76/6/1 72/6/1 74/6/1
f 76/6/1 74/6/1 75/6/1
f 77/6/2 78/6/2 79/6/2
f 79/6/2 78/6/2 80/6/2
f 80/6/2 78/6/2 81/6/2
f 81/6/2 78/6/2 82/6/2
f 82/5/2 83/5/2 85/5/2
f 85/5/2 83/5/2 86/5/2
f 83/4/2 84/4/2 87/4/2
f 86/5/2 83/5/2 87/5/2
f 87/4/2 84/4/2 88/4/2
f 89/6/2 90/6/2 92/6/2
f 91/6/2 92/6/2 93/6/2
f 92/6/2 90/6/2 94/6/2
f 93/6/2 92/6/2 94/6/2
f 95/5/2 96/5/2 97/5/2
f 95/5/2 97/5/2 99/5/2
f 97/5/2 98/5/2 99/5/2
f 99/5/2 98/5/2 100/5/2
f 101/4/2 102/4/2 103/4/2
f 103/4/2 102/4/2 104/4/2
f 105/6/2 106/6/2 107/6/2
f 107/6/2 106/6/2 108/6/2
f 108/6/2 106/6/2 109/6/2
f 109/6/2 106/6/2 110/6/2
f 111/6/2 112/6/2 114/6/2
f 113/6/2 114/6/2 115/6/2
f 114/6/2 112/6/2 116/6/2
f 115/6/2 114/6/2 116/6/2
f 117/5/2 118/5/2 120/5/2
f 118/4/2 119/4/2 121/4/2
f 120/5/2 118/5/2 121/5/2
f 121/4/2 119/4/2 122/4/2
f 117/5/2 120/5/2 123/5/2
f 123/5/2 120/5/2 124/5/2
f 127/2/2 128/2/2 129/2/2
f 129/2/2 128/2/2 130/2/2
f 125/4/2 126/4/2 131/4/2
f 131/4/2 126/4/2 132/4/2
f 133/2/2 134/2/2 135/2/2
f 135/2/2 134/2/2 136/2/2
f 137/2/2 138/2/2 141/2/2
f 141/2/2 138/2/2 142/2/2
f 139/5/2 140/5/2 143/5/2
f 143/5/2 140/5/2 144/5/2
f 139/5/2 143/5/2 145/5/2
f 145/5/2 143/5/2 146/5/2
f 147/4/2 148/4/2 150/4/2
f 149/4/2 150/4/2 151/4/2
f 150/4/2 148/4/2 152/4/2
f 151/4/2 150/4/2 152/4/2
f 155/4/3 154/4/3 153/4/3
f 156/4/3 154/4/3 155/4/3
f 159/2/3 158/2/3 157/2/3
f 160/2/3 158/2/3 159/2/3
f 162/2/3 159/2/3 157/2/3
f 163/2/3 158/2/3 160/2/3
f 165/2/3 162/2/3 161/2/3
f 166/6/3 160/6/3 159/6/3
f 166/2/3 162/2/3 165/2/3
f 166/2/3 159/2/3 162/2/3
f 167/2/3 164/2/3 163/2/3
f 167/6/3 160/6/3 166/6/3
f 167/2/3 163/2/3 160/2/3
f 168/2/3 164/2/3 167/2/3
f 169/6/3 166/6/3 165/6/3
f 169/6/3 167/6/3 166/6/3
f 169/6/3 168/6/3 167/6/3
f 170/6/3 168/6/3 169/6/3
f 171/6/3 169/6/3 165/6/3
f 172/6/3 168/6/3 170/6/3
f 173/2/3 165/2/3 161/2/3
f 173/6/3 172/6/3 171/6/3
f 173/6/3 171/6/3 165/6/3
f 174/6/3 172/6/3 173/6/3
f 175/6/3 168/6/3 172/6/3
f 175/6/3 172/6/3 174/6/3
f 176/2/3 164/2/3 168/2/3
f 176/6/3 168/6/3 175/6/3
f 177/2/3 174/2/3 173/2/3
f 177/2/3 173/2/3 161/2/3
f 178/2/3 174/2/3 177/2/3
f 179/2/3 176/2/3 175/2/3
f 180/2/3 164/2/3 176/2/3
f 180/2/3 176/2/3 179/2/3
f 181/6/3 175/6/3 174/6/3
f 181/2/3 174/2/3 178/2/3
f 182/2/3 179/2/3 175/2/3
f 182/6/3 175/6/3 181/6/3
f 183/2/3 181/2/3 178/2/3
f 183/2/3 182/2/3 181/2/3
f 184/2/3 179/2/3 182/2/3
f 184/2/3 182/2/3 183/2/3
f 189/6/3 186/6/3 185/6/3
f 190/6/3 186/6/3 189/6/3
f 191/6/3 188/6/3 187/6/3
f 192/6/3 188/6/3 191/6/3
f 197/6/3 194/6/3 193/6/3
f 198/6/3 194/6/3 197/6/3
f 199/6/3 196/6/3 195/6/3
f 200/6/3 196/6/3 199/6/3
f 203/4/3 202/4/3 201/4/3
f 204/4/3 202/4/3 203/4/3
f 207/5/3 206/5/3 205/5/3
f 208/5/3 206/5/3 207/5/3
f 209/3/3 208/3/3 207/3/3
f 210/3/3 208/3/3 209/3/3
f 211/3/3 209/3/3 207/3/3
f 211/1/3 210/1/3 209/1/3
f 212/3/3 208/3/3 210/3/3
f 212/1/3 210/1/3 211/1/3
f 213/5/3 207/5/3 205/5/3
f 213/3/3 211/3/3 207/3/3
f 213/3/3 212/3/3 211/3/3
f 214/3/3 208/3/3 212/3/3
f 214/3/3 212/3/3 213/3/3
f 214/5/3 206/5/3 208/5/3
f 215/5/3 213/5/3 205/5/3
f 215/5/3 214/5/3 213/5/3
f 216/5/3 206/5/3 214/5/3
f 216/5/3 214/5/3 215/5/3
f 217/3/3 216/3/3 215/3/3
f 218/3/3 216/3/3 217/3/3
f 219/3/3 217/3/3 215/3/3
f 219/1/3 218/1/3 217/1/3
f 220/3/3 216/3/3 218/3/3
f 220/1/3 218/1/3 219/1/3
f 221/5/3 215/5/3 205/5/3
f 221/3/3 219/3/3 215/3/3
f 221/3/3 220/3/3 219/3/3
f 222/3/3 216/3/3 220/3/3
f 222/3/3 220/3/3 221/3/3
f 222/5/3 206/5/3 216/5/3
f 223/5/3 221/5/3 205/5/3
f 223/5/3 222/5/3 221/5/3
f 224/5/3 206/5/3 222/5/3
f 224/5/3 222/5/3 223/5/3
f 227/4/3 226/4/3 225/4/3
f 228/4/3 226/4/3 227/4/3
f 229/4/3 227/4/3 225/4/3
f 230/4/3 226/4/3 228/4/3
f 231/4/3 229/4/3 225/4/3
f 231/4/3 230/4/3 229/4/3
f 232/4/3 226/4/3 230/4/3
f 232/4/3 230/4/3 231/4/3
f 233/4/3 231/4/3 225/4/3
f 234/4/3 226/4/3 232/4/3
f 235/4/3 233/4/3 225/4/3
f 235/4/3 234/4/3 233/4/3
f 236/4/3 226/4/3 234/4/3
f 236/4/3 234/4/3 235/4/3
f 239/4/3 238/4/3 237/4/3
f 240/4/3 238/4/3 239/4/3
f 243/4/3 242/4/3 241/4/3
f 244/4/3 242/4/3 243/4/3
f 245/2/4 246/2/4 247/2/4
f 247/2/4 246/2/4 248/2/4
f 245/2/4 247/2/4 250/2/4
f 248/2/4 246/2/4 251/2/4
f 249/2/4 250/2/4 253/2/4
f 247/6/4 248/6/4 254/6/4
f 253/2/4 250/2/4 254/2/4
f 250/2/4 247/2/4 254/2/4
f 251/2/4 252/2/4 255/2/4
f 254/6/4 248/6/4 255/6/4
f 248/2/4 251/2/4 255/2/4
f 255/2/4 252/2/4 256/2/4
f 253/6/4 254/6/4 257/6/4
f 254/6/4 255/6/4 257/6/4
f 255/6/4 256/6/4 257/6/4
f 257/6/4 256/6/4 258/6/4
f 253/6/4 257/6/4 259/6/4
f 259/6/4 257/6/4 260/6/4
f 258/6/4 256/6/4 261/6/4
f 261/6/4 256/6/4 262/6/4
f 253/6/4 259/6/4 263/6/4
f 260/6/4 257/6/4 264/6/4
f 258/6/4 261/6/4 265/6/4
f 262/6/4 256/6/4 266/6/4
f 263/6/4 264/6/4 267/6/4
f 264/6/4 257/6/4 267/6/4
f 258/6/4 265/6/4 268/6/4
f 265/6/4 266/6/4 268/6/4
f 263/6/4 267/6/4 269/6/4
f 267/6/4 268/6/4 269/6/4
f 268/6/4 266/6/4 270/6/4
f 269/6/4 268/6/4 270/6/4
f 253/6/4 263/6/4 271/6/4
f 263/6/4 269/6/4 271/6/4
f 271/6/4 269/6/4 272/6/4
f 270/6/4 266/6/4 273/6/4
f 266/6/4 256/6/4 274/6/4
f 273/6/4 266/6/4 274/6/4
f 253/6/4 271/6/4 275/6/4
f 272/6/4 269/6/4 276/6/4
f 270/6/4 273/6/4 277/6/4
f 274/6/4 256/6/4 278/6/4
f 275/6/4 276/6/4 279/6/4
f 276/6/4 269/6/4 279/6/4
f 277/6/4 278/6/4 280/6/4
f 270/6/4 277/6/4 280/6/4
f 249/2/4 253/2/4 281/2/4
f 279/6/4 280/6/4 281/6/4
f 253/6/4 275/6/4 281/6/4
f 275/6/4 279/6/4 281/6/4
f 281/6/4 280/6/4 282/6/4
f 280/6/4 278/6/4 283/6/4
f 282/6/4 280/6/4 283/6/4
f 278/6/4 256/6/4 283/6/4
f 256/2/4 252/2/4 284/2/4
f 283/6/4 256/6/4 284/6/4
f 281/2/4 282/2/4 285/2/4
f 249/2/4 281/2/4 285/2/4
f 285/2/4 282/2/4 286/2/4
f 283/2/4 284/2/4 287/2/4
f 284/2/4 252/2/4 288/2/4
f 287/2/4 284/2/4 288/2/4
f 282/6/4 283/6/4 289/6/4
f 286/2/4 282/2/4 289/2/4
f 283/2/4 287/2/4 290/2/4
f 289/6/4 283/6/4 290/6/4
f 286/2/4 289/2/4 291/2/4
f 289/2/4 290/2/4 291/2/4
f 290/2/4 287/2/4 292/2/4
f 291/2/4 290/2/4 292/2/4
f 293/6/4 294/6/4 297/6/4
f 297/6/4 294/6/4 298/6/4
f 295/6/4 296/6/4 300/6/4
f 300/6/4 296/6/4 301/6/4
f 298/5/4 299/5/4 302/5/4
f 302/5/4 299/5/4 303/5/4
f 304/5/4 305/5/4 307/5/4
f 307/5/4 305/5/4 308/5/4
f 306/6/4 307/6/4 311/6/4
f 311/6/4 307/6/4 312/6/4
f 309/6/4 310/6/4 313/6/4
f 313/6/4 310/6/4 314/6/4
f 315/5/4 316/5/4 317/5/4
f 317/5/4 316/5/4 318/5/4
f 318/5/4 316/5/4 319/5/4
f 320/5/4 321/5/4 322/5/4
f 322/5/4 321/5/4 323/5/4
f 323/5/4 321/5/4 324/5/4
f 325/4/4 326/4/4 327/4/4
f 327/4/4 326/4/4 328/4/4
f 329/5/4 330/5/4 331/5/4
f 331/5/4 330/5/4 332/5/4
f 333/4/4 334/4/4 335/4/4
f 335/4/4 334/4/4 336/4/4
f 339/4/5 338/4/5 337/4/5
f 340/4/5 338/4/5 339/4/5
f 343/2/5 342/2/5 341/2/5
f 344/2/5 342/2/5 343/2/5
f 349/2/5 346/2/5 345/2/5
f 350/2/5 346/2/5 349/2/5
f 351/2/5 348/2/5 347/2/5
f 352/2/5 348/2/5 351/2/5
f 357/6/5 354/6/5 353/6/5
f 358/6/5 354/6/5 357/6/5
f 359/6/5 356/6/5 355/6/5
f 360/6/5 356/6/5 359/6/5
f 363/4/5 362/4/5 361/4/5
f 364/4/5 362/4/5 363/4/5
f 369/5/5 366/5/5 365/5/5
f 370/5/5 366/5/5 369/5/5
f 371/5/5 368/5/5 367/5/5
f 372/5/5 368/5/5 371/5/5
f 373/5/5 369/5/5 365/5/5
f 374/5/5 366/5/5 370/5/5
f 375/5/5 366/5/5 374/5/5
f 376/5/5 371/5/5 367/5/5
f 377/5/5 371/5/5 376/5/5
f 378/5/5 368/5/5 372/5/5
f 379/5/5 373/5/5 365/5/5
f 379/5/5 374/5/5 373/5/5
f 380/5/5 374/5/5 379/5/5
f 381/5/5 378/5/5 377/5/5
f 382/5/5 368/5/5 378/5/5
f 382/5/5 378/5/5 381/5/5
f 383/4/5 380/4/5 379/4/5
f 384/4/5 380/4/5 383/4/5
f 385/4/5 382/4/5 381/4/5
f 386/4/5 382/4/5 385/4/5
f 391/5/5 388/5/5 387/5/5
f 392/5/5 388/5/5 391/5/5
f 393/5/5 390/5/5 389/5/5
f 394/5/5 390/5/5 393/5/5
f 399/6/5 396/6/5 395/6/5
f 400/6/5 396/6/5 399/6/5
f 401/6/5 398/6/5 397/6/5
f 402/6/5 398/6/5 401/6/5
f 405/5/5 404/5/5 403/5/5
f 406/5/5 404/5/5 405/5/5
f 407/5/5 405/5/5 403/5/5
f 408/5/5 404/5/5 406/5/5
f 409/5/5 407/5/5 403/5/5
f 409/5/5 408/5/5 407/5/5
f 410/5/5 404/5/5 408/5/5
f 410/5/5 408/5/5 409/5/5
f 415/4/5 412/4/5 411/4/5
f 416/4/5 414/4/5 413/4/5
f 417/4/5 415/4/5 411/4/5
f 417/4/5 416/4/5 415/4/5
f 418/4/5 414/4/5 416/4/5
f 418/4/5 416/4/5 417/4/5
f 421/4/5 420/4/5 419/4/5
f 422/4/5 420/4/5 421/4/5
f 423/4/5 421/4/5 419/4/5
f 424/4/5 421/4/5 423/4/5
f 425/4/5 420/4/5 422/4/5
f 426/4/5 420/4/5 425/4/5
f 427/6/6 428/6/6 431/6/6
f 431/6/6 428/6/6 432/6/6
f 429/6/6 430/6/6 433/6/6
f 433/6/6 430/6/6 434/6/6
f 435/5/6 436/5/6 439/5/6
f 439/5/6 436/5/6 440/5/6
f 437/5/6 438/5/6 441/5/6
f 441/5/6 438/5/6 442/5/6
f 439/4/6 440/4/6 443/4/6
f 443/4/6 440/4/6 444/4/6
f 441/4/6 442/4/6 445/4/6
f 445/4/6 442/4/6 446/4/6
f 447/5/6 448/5/6 451/5/6
f 451/5/6 448/5/6 452/5/6
f 449/5/6 450/5/6 453/5/6
f 453/5/6 450/5/6 454/5/6
f 447/5/6 451/5/6 455/5/6
f 452/5/6 448/5/6 456/5/6
f 449/5/6 453/5/6 457/5/6
f 454/5/6 450/5/6 458/5/6
f 447/5/6 455/5/6 459/5/6
f 455/5/6 456/5/6 459/5/6
f 456/5/6 448/5/6 460/5/6
f 459/5/6 456/5/6 460/5/6
f 457/5/6 458/5/6 461/5/6
f 449/5/6 457/5/6 461/5/6
f 458/5/6 450/5/6 462/5/6
f 461/5/6 458/5/6 462/5/6
f 463/4/6 464/4/6 465/4/6
f 465/4/6 464/4/6 466/4/6
f 467/6/6 468/6/6 471/6/6
f 471/6/6 468/6/6 472/6/6
f 469/6/6 470/6/6 473/6/6
f 473/6/6 470/6/6 474/6/6
f 475/2/6 476/2/6 479/2/6
f 479/2/6 476/2/6 480/2/6
f 477/2/6 478/2/6 481/2/6
f 481/2/6 478/2/6 482/2/6
f 483/2/6 484/2/6 485/2/6
f 485/2/6 484/2/6 486/2/6
f 487/4/6 488/4/6 489/4/6
f 489/4/6 488/4/6 490/4/6
